G04*
G04 #@! TF.GenerationSoftware,Altium Limited,Altium Designer,24.2.2 (26)*
G04*
G04 Layer_Color=8388736*
%FSLAX44Y44*%
%MOMM*%
G71*
G04*
G04 #@! TF.SameCoordinates,AEC4A8A8-F976-43A1-B07D-7652D342165A*
G04*
G04*
G04 #@! TF.FilePolarity,Negative*
G04*
G01*
G75*
%ADD18R,0.8081X1.2621*%
%ADD19R,1.3562X1.0546*%
%ADD24R,1.5562X1.5046*%
%ADD25R,1.4562X1.2546*%
%ADD26R,1.3000X0.7000*%
%ADD27R,2.4130X3.4290*%
%ADD28R,2.8000X2.4000*%
%ADD29R,1.6000X2.8000*%
%ADD30R,1.5000X1.2000*%
G04:AMPARAMS|DCode=32|XSize=1.636mm|YSize=0.6251mm|CornerRadius=0.3125mm|HoleSize=0mm|Usage=FLASHONLY|Rotation=0.000|XOffset=0mm|YOffset=0mm|HoleType=Round|Shape=RoundedRectangle|*
%AMROUNDEDRECTD32*
21,1,1.6360,0.0000,0,0,0.0*
21,1,1.0110,0.6251,0,0,0.0*
1,1,0.6251,0.5055,0.0000*
1,1,0.6251,-0.5055,0.0000*
1,1,0.6251,-0.5055,0.0000*
1,1,0.6251,0.5055,0.0000*
%
%ADD32ROUNDEDRECTD32*%
%ADD33R,1.6360X0.6251*%
%ADD34R,1.8034X1.8034*%
%ADD35R,0.2540X0.8128*%
%ADD36R,0.8128X0.2540*%
%ADD37R,1.5082X1.4057*%
%ADD38R,1.3621X1.1546*%
%ADD39R,0.9500X1.3500*%
%ADD40R,1.4057X1.5082*%
%ADD41R,1.3546X1.4621*%
%ADD44R,1.6032X2.2032*%
%ADD45R,1.0032X1.4532*%
%ADD46R,1.2032X1.5532*%
%ADD47R,0.3416X0.7016*%
%ADD48R,0.7016X0.3416*%
%ADD49R,0.2484X1.3484*%
%ADD50R,0.2484X1.6984*%
%ADD51R,1.4032X1.6532*%
%ADD52R,1.6532X1.4032*%
%ADD53R,1.5532X1.2032*%
%ADD54C,2.0032*%
%ADD55R,2.0032X2.0032*%
%ADD56C,1.7000*%
%ADD57C,1.8000*%
%ADD58C,1.7032*%
G04:AMPARAMS|DCode=59|XSize=2.1532mm|YSize=2.1532mm|CornerRadius=0.5891mm|HoleSize=0mm|Usage=FLASHONLY|Rotation=180.000|XOffset=0mm|YOffset=0mm|HoleType=Round|Shape=RoundedRectangle|*
%AMROUNDEDRECTD59*
21,1,2.1532,0.9750,0,0,180.0*
21,1,0.9750,2.1532,0,0,180.0*
1,1,1.1782,-0.4875,0.4875*
1,1,1.1782,0.4875,0.4875*
1,1,1.1782,0.4875,-0.4875*
1,1,1.1782,-0.4875,-0.4875*
%
%ADD59ROUNDEDRECTD59*%
%ADD60C,2.1532*%
%ADD61C,0.7112*%
%ADD62C,0.9032*%
G36*
X957608Y1047850D02*
X957701Y1047822D01*
X957748Y1047797D01*
X957788Y1047776D01*
X957863Y1047714D01*
Y1047714D01*
X957864D01*
X957926Y1047638D01*
X957947Y1047598D01*
X957972Y1047551D01*
X958000Y1047458D01*
X958010Y1047360D01*
Y1042360D01*
D01*
Y1040860D01*
X958000Y1040762D01*
X957972Y1040669D01*
X957947Y1040622D01*
X957926Y1040582D01*
X957864Y1040507D01*
X957863D01*
Y1040506D01*
X957788Y1040444D01*
X957748Y1040423D01*
X957701Y1040398D01*
X957608Y1040370D01*
X957510Y1040360D01*
X952510D01*
X952412Y1040370D01*
X952319Y1040398D01*
X952232Y1040444D01*
X952157Y1040506D01*
X952094Y1040582D01*
X952048Y1040669D01*
X952020Y1040762D01*
X952010Y1040860D01*
Y1042360D01*
X952020Y1042458D01*
X952048Y1042551D01*
X952094Y1042638D01*
X952157Y1042713D01*
X952232Y1042776D01*
X952319Y1042822D01*
X952412Y1042850D01*
X952510Y1042860D01*
X955510D01*
Y1045360D01*
X952510D01*
X952412Y1045370D01*
X952319Y1045398D01*
X952232Y1045444D01*
X952157Y1045507D01*
X952094Y1045582D01*
X952048Y1045669D01*
X952020Y1045762D01*
X952010Y1045860D01*
Y1047360D01*
X952020Y1047458D01*
X952048Y1047551D01*
X952094Y1047638D01*
X952157Y1047714D01*
X952232Y1047776D01*
X952319Y1047822D01*
X952412Y1047850D01*
X952510Y1047860D01*
X957510D01*
X957608Y1047850D01*
D02*
G37*
G36*
X985608D02*
X985701Y1047822D01*
X985788Y1047776D01*
X985863Y1047714D01*
X985926Y1047638D01*
X985972Y1047551D01*
X986000Y1047458D01*
X986010Y1047360D01*
Y1045860D01*
X986000Y1045762D01*
X985972Y1045669D01*
X985926Y1045582D01*
X985863Y1045507D01*
X985788Y1045444D01*
X985701Y1045398D01*
X985608Y1045370D01*
X985510Y1045360D01*
X982510D01*
Y1042860D01*
X985510D01*
X985608Y1042850D01*
X985701Y1042822D01*
X985788Y1042776D01*
X985863Y1042713D01*
X985926Y1042638D01*
X985972Y1042551D01*
X986000Y1042458D01*
X986010Y1042360D01*
Y1040860D01*
X986000Y1040762D01*
X985972Y1040669D01*
X985926Y1040582D01*
X985863Y1040506D01*
X985788Y1040444D01*
X985701Y1040398D01*
X985608Y1040370D01*
X985510Y1040360D01*
X980510D01*
X980412Y1040370D01*
X980319Y1040398D01*
X980272Y1040423D01*
X980232Y1040444D01*
X980156Y1040506D01*
Y1040507D01*
X980156D01*
X980094Y1040582D01*
X980073Y1040622D01*
X980048Y1040669D01*
X980020Y1040762D01*
X980010Y1040860D01*
Y1042360D01*
Y1045860D01*
Y1047360D01*
D01*
X980020Y1047458D01*
X980048Y1047551D01*
X980073Y1047598D01*
X980094Y1047638D01*
X980156Y1047714D01*
X980156D01*
Y1047714D01*
X980232Y1047776D01*
X980272Y1047797D01*
X980319Y1047822D01*
X980412Y1047850D01*
X980510Y1047860D01*
X985510D01*
X985608Y1047850D01*
D02*
G37*
D18*
X1029100Y999490D02*
D03*
X1013060D02*
D03*
Y966470D02*
D03*
X1029100D02*
D03*
D19*
X969010Y995318D02*
D03*
Y980802D02*
D03*
D24*
X1076960Y1059180D02*
D03*
Y1077196D02*
D03*
X609600Y1109862D02*
D03*
Y1127878D02*
D03*
X723900Y1085614D02*
D03*
Y1103630D02*
D03*
D25*
X1035050Y1059812D02*
D03*
Y1076328D02*
D03*
X646430Y1118876D02*
D03*
Y1102360D02*
D03*
D26*
X924560Y1056030D02*
D03*
Y1075030D02*
D03*
X892810Y1056640D02*
D03*
Y1075640D02*
D03*
D27*
X942340Y1146810D02*
D03*
X1000760D02*
D03*
D28*
X341080Y1146660D02*
D03*
Y1032660D02*
D03*
X402080Y1146660D02*
D03*
Y1032660D02*
D03*
D29*
X495300Y1106080D02*
D03*
Y1063080D02*
D03*
D30*
X705650Y1123950D02*
D03*
X678650D02*
D03*
D32*
X729192Y1191920D02*
D03*
X707390Y1182420D02*
D03*
D33*
Y1201420D02*
D03*
D34*
X656550Y1064768D02*
D03*
D35*
X649050Y1079500D02*
D03*
X654050D02*
D03*
X659050D02*
D03*
X664050D02*
D03*
Y1050036D02*
D03*
X659050D02*
D03*
X654050D02*
D03*
X649050D02*
D03*
D36*
X671282Y1072268D02*
D03*
Y1067268D02*
D03*
Y1062268D02*
D03*
Y1057268D02*
D03*
X641818D02*
D03*
Y1062268D02*
D03*
Y1067268D02*
D03*
Y1072268D02*
D03*
D37*
X581660Y1115432D02*
D03*
Y1096908D02*
D03*
D38*
X648970Y1015868D02*
D03*
Y998352D02*
D03*
D39*
X758310Y1068070D02*
D03*
X773310D02*
D03*
D40*
X567318Y1052830D02*
D03*
X585842D02*
D03*
D41*
X756518Y1018540D02*
D03*
X737002D02*
D03*
D44*
X552860Y1215390D02*
D03*
X508860D02*
D03*
D45*
X1030350Y1028700D02*
D03*
X1014350D02*
D03*
D46*
X924670Y1032510D02*
D03*
X906670D02*
D03*
X756810Y1043940D02*
D03*
X774810D02*
D03*
X699550Y994410D02*
D03*
X717550D02*
D03*
D47*
X961510Y1027360D02*
D03*
X966510D02*
D03*
X971510D02*
D03*
X976510D02*
D03*
D48*
X983010Y1031610D02*
D03*
Y1036610D02*
D03*
X955010D02*
D03*
Y1031610D02*
D03*
D49*
X974010Y1046610D02*
D03*
X964010D02*
D03*
D50*
X969010Y1044860D02*
D03*
D51*
X590710Y1215390D02*
D03*
X610710D02*
D03*
D52*
X613410Y1015840D02*
D03*
Y995840D02*
D03*
D53*
X676910Y960010D02*
D03*
Y978010D02*
D03*
D54*
X1143000Y1052830D02*
D03*
Y1027430D02*
D03*
Y1078230D02*
D03*
Y1103630D02*
D03*
Y1129030D02*
D03*
D55*
Y1002030D02*
D03*
D56*
X341080Y1089660D02*
D03*
D57*
X386080D02*
D03*
D58*
X598170Y967740D02*
D03*
X623570D02*
D03*
D59*
X742550Y878880D02*
D03*
D60*
X692550D02*
D03*
D61*
X659130Y1069340D02*
D03*
X662289Y1059768D02*
D03*
X650811D02*
D03*
X656590Y1061720D02*
D03*
X651510Y1069340D02*
D03*
D62*
X969010Y976320D02*
D03*
X826770Y1064260D02*
D03*
X891540Y1080770D02*
D03*
X924560Y1079500D02*
D03*
X947420Y1026160D02*
D03*
X969010Y1064260D02*
D03*
X986790Y1013460D02*
D03*
X1035050Y999490D02*
D03*
X1036320Y1083310D02*
D03*
X1076960Y1085850D02*
D03*
X723900Y1078230D02*
D03*
X628650Y1122680D02*
D03*
X648970Y991870D02*
D03*
X722630Y994410D02*
D03*
X609600Y1137920D02*
D03*
X581660Y1122680D02*
D03*
X560070Y1051560D02*
D03*
X466090Y965200D02*
D03*
X464820Y998220D02*
D03*
X429260Y962660D02*
D03*
Y996950D02*
D03*
X391160Y963930D02*
D03*
Y994410D02*
D03*
X346710Y961390D02*
D03*
X347980Y994410D02*
D03*
M02*
