G04*
G04 #@! TF.GenerationSoftware,Altium Limited,Altium Designer,24.2.2 (26)*
G04*
G04 Layer_Physical_Order=2*
G04 Layer_Color=16711680*
%FSLAX44Y44*%
%MOMM*%
G71*
G04*
G04 #@! TF.SameCoordinates,AEC4A8A8-F976-43A1-B07D-7652D342165A*
G04*
G04*
G04 #@! TF.FilePolarity,Positive*
G04*
G01*
G75*
%ADD56C,1.7000*%
%ADD57C,1.8000*%
%ADD67C,0.7620*%
%ADD78R,1.8000X1.8000*%
%ADD79C,1.5000*%
G04:AMPARAMS|DCode=80|XSize=1.95mm|YSize=1.95mm|CornerRadius=0.4875mm|HoleSize=0mm|Usage=FLASHONLY|Rotation=180.000|XOffset=0mm|YOffset=0mm|HoleType=Round|Shape=RoundedRectangle|*
%AMROUNDEDRECTD80*
21,1,1.9500,0.9750,0,0,180.0*
21,1,0.9750,1.9500,0,0,180.0*
1,1,0.9750,-0.4875,0.4875*
1,1,0.9750,0.4875,0.4875*
1,1,0.9750,0.4875,-0.4875*
1,1,0.9750,-0.4875,-0.4875*
%
%ADD80ROUNDEDRECTD80*%
%ADD81C,1.9500*%
%ADD82C,0.5080*%
%ADD83C,0.7000*%
G36*
X1179830Y820420D02*
X312420D01*
X254000Y878840D01*
Y1183520D01*
X316350Y1245870D01*
X1179830D01*
Y820420D01*
D02*
G37*
%LPC*%
G36*
X612775Y1143142D02*
Y1141095D01*
X614823D01*
X614720Y1141341D01*
X613021Y1143040D01*
X612775Y1143142D01*
D02*
G37*
G36*
X606425D02*
X606179Y1143040D01*
X604479Y1141341D01*
X604378Y1141095D01*
X606425D01*
Y1143142D01*
D02*
G37*
G36*
X614823Y1134745D02*
X612775D01*
Y1132698D01*
X613021Y1132800D01*
X614720Y1134499D01*
X614823Y1134745D01*
D02*
G37*
G36*
X606425D02*
X604378D01*
X604479Y1134499D01*
X606179Y1132800D01*
X606425Y1132698D01*
Y1134745D01*
D02*
G37*
G36*
X1144519Y1140570D02*
X1144270D01*
Y1130300D01*
X1154540D01*
Y1130549D01*
X1153754Y1133484D01*
X1152234Y1136116D01*
X1150086Y1138264D01*
X1147454Y1139783D01*
X1144519Y1140570D01*
D02*
G37*
G36*
X1141730D02*
X1141481D01*
X1138546Y1139783D01*
X1135914Y1138264D01*
X1133766Y1136116D01*
X1132246Y1133484D01*
X1131460Y1130549D01*
Y1130300D01*
X1141730D01*
Y1140570D01*
D02*
G37*
G36*
X584835Y1127903D02*
Y1125855D01*
X586883D01*
X586781Y1126101D01*
X585081Y1127801D01*
X584835Y1127903D01*
D02*
G37*
G36*
X578485D02*
X578239Y1127801D01*
X576539Y1126101D01*
X576437Y1125855D01*
X578485D01*
Y1127903D01*
D02*
G37*
G36*
X1154540Y1127760D02*
X1144270D01*
Y1117490D01*
X1144519D01*
X1147454Y1118277D01*
X1150086Y1119796D01*
X1152234Y1121944D01*
X1153754Y1124576D01*
X1154540Y1127511D01*
Y1127760D01*
D02*
G37*
G36*
X1141730D02*
X1131460D01*
Y1127511D01*
X1132246Y1124576D01*
X1133766Y1121944D01*
X1135914Y1119796D01*
X1138546Y1118277D01*
X1141481Y1117490D01*
X1141730D01*
Y1127760D01*
D02*
G37*
G36*
X586883Y1119505D02*
X584835D01*
Y1117458D01*
X585081Y1117560D01*
X586781Y1119259D01*
X586883Y1119505D01*
D02*
G37*
G36*
X578485D02*
X576437D01*
X576539Y1119259D01*
X578239Y1117560D01*
X578485Y1117458D01*
Y1119505D01*
D02*
G37*
G36*
X1144519Y1115170D02*
X1144270D01*
Y1104900D01*
X1154540D01*
Y1105149D01*
X1153754Y1108084D01*
X1152234Y1110716D01*
X1150086Y1112864D01*
X1147454Y1114383D01*
X1144519Y1115170D01*
D02*
G37*
G36*
X1141730D02*
X1141481D01*
X1138546Y1114383D01*
X1135914Y1112864D01*
X1133766Y1110716D01*
X1132246Y1108084D01*
X1131460Y1105149D01*
Y1104900D01*
X1141730D01*
Y1115170D01*
D02*
G37*
G36*
X1154540Y1102360D02*
X1144270D01*
Y1092090D01*
X1144519D01*
X1147454Y1092877D01*
X1150086Y1094396D01*
X1152234Y1096544D01*
X1153754Y1099176D01*
X1154540Y1102111D01*
Y1102360D01*
D02*
G37*
G36*
X1141730D02*
X1131460D01*
Y1102111D01*
X1132246Y1099176D01*
X1133766Y1096544D01*
X1135914Y1094396D01*
X1138546Y1092877D01*
X1141481Y1092090D01*
X1141730D01*
Y1102360D01*
D02*
G37*
G36*
X1080770Y1090582D02*
Y1089660D01*
X1081692D01*
X1080770Y1090582D01*
D02*
G37*
G36*
X1073150D02*
X1072228Y1089660D01*
X1073150D01*
Y1090582D01*
D02*
G37*
G36*
X1040130Y1088042D02*
Y1087120D01*
X1041052D01*
X1040130Y1088042D01*
D02*
G37*
G36*
X1032510D02*
X1031588Y1087120D01*
X1032510D01*
Y1088042D01*
D02*
G37*
G36*
X928370Y1084232D02*
Y1083310D01*
X929292D01*
X928370Y1084232D01*
D02*
G37*
G36*
X920750D02*
X919828Y1083310D01*
X920750D01*
Y1084232D01*
D02*
G37*
G36*
X894080Y1086255D02*
Y1083310D01*
X897026D01*
X896661Y1084191D01*
X894961Y1085891D01*
X894080Y1086255D01*
D02*
G37*
G36*
X889000D02*
X888119Y1085891D01*
X886420Y1084191D01*
X886055Y1083310D01*
X889000D01*
Y1086255D01*
D02*
G37*
G36*
X1081692Y1082040D02*
X1080770D01*
Y1081118D01*
X1081692Y1082040D01*
D02*
G37*
G36*
X1073150D02*
X1072228D01*
X1073150Y1081118D01*
Y1082040D01*
D02*
G37*
G36*
X1144519Y1089770D02*
X1144270D01*
Y1079500D01*
X1154540D01*
Y1079749D01*
X1153754Y1082684D01*
X1152234Y1085316D01*
X1150086Y1087464D01*
X1147454Y1088984D01*
X1144519Y1089770D01*
D02*
G37*
G36*
X725170Y1084242D02*
Y1079500D01*
X729912D01*
X729020Y1081651D01*
X727321Y1083351D01*
X725170Y1084242D01*
D02*
G37*
G36*
X722630D02*
X720479Y1083351D01*
X718780Y1081651D01*
X717888Y1079500D01*
X722630D01*
Y1084242D01*
D02*
G37*
G36*
X1141730Y1089770D02*
X1141481D01*
X1138546Y1088984D01*
X1135914Y1087464D01*
X1133766Y1085316D01*
X1132246Y1082684D01*
X1131460Y1079749D01*
Y1079500D01*
X1141730D01*
Y1089770D01*
D02*
G37*
G36*
X342533Y1100700D02*
X339627D01*
X336819Y1099948D01*
X334301Y1098494D01*
X332246Y1096439D01*
X330792Y1093921D01*
X330040Y1091113D01*
Y1088207D01*
X330792Y1085399D01*
X332246Y1082881D01*
X334301Y1080826D01*
X336819Y1079372D01*
X339627Y1078620D01*
X342533D01*
X345341Y1079372D01*
X347859Y1080826D01*
X349914Y1082881D01*
X351368Y1085399D01*
X352120Y1088207D01*
Y1091113D01*
X351368Y1093921D01*
X349914Y1096439D01*
X347859Y1098494D01*
X345341Y1099948D01*
X342533Y1100700D01*
D02*
G37*
G36*
X1041052Y1079500D02*
X1040130D01*
Y1078578D01*
X1041052Y1079500D01*
D02*
G37*
G36*
X1032510D02*
X1031588D01*
X1032510Y1078578D01*
Y1079500D01*
D02*
G37*
G36*
X387599Y1101200D02*
X384561D01*
X381626Y1100414D01*
X378994Y1098894D01*
X376846Y1096746D01*
X375326Y1094114D01*
X374540Y1091179D01*
Y1088141D01*
X375326Y1085206D01*
X376846Y1082574D01*
X378994Y1080426D01*
X381626Y1078906D01*
X384561Y1078120D01*
X387599D01*
X390534Y1078906D01*
X393166Y1080426D01*
X395314Y1082574D01*
X396833Y1085206D01*
X397620Y1088141D01*
Y1091179D01*
X396833Y1094114D01*
X395314Y1096746D01*
X393166Y1098894D01*
X390534Y1100414D01*
X387599Y1101200D01*
D02*
G37*
G36*
X897026Y1078230D02*
X894080D01*
Y1075285D01*
X894961Y1075649D01*
X896661Y1077349D01*
X897026Y1078230D01*
D02*
G37*
G36*
X889000D02*
X886055D01*
X886420Y1077349D01*
X888119Y1075649D01*
X889000Y1075285D01*
Y1078230D01*
D02*
G37*
G36*
X929292Y1075690D02*
X928370D01*
Y1074768D01*
X929292Y1075690D01*
D02*
G37*
G36*
X920750D02*
X919828D01*
X920750Y1074768D01*
Y1075690D01*
D02*
G37*
G36*
X657860Y1074313D02*
X656252Y1073647D01*
X655320Y1072714D01*
X654388Y1073647D01*
X652780Y1074313D01*
Y1069340D01*
X651510D01*
Y1068070D01*
X646537D01*
X647203Y1066462D01*
X648134Y1065532D01*
X647933Y1064075D01*
X647933Y1064074D01*
X646504Y1062646D01*
X645838Y1061038D01*
X650811D01*
Y1059768D01*
X652081D01*
Y1054796D01*
X653688Y1055461D01*
X655076Y1056849D01*
X655320Y1056748D01*
Y1061720D01*
X657860D01*
Y1056748D01*
X658048Y1056825D01*
X659412Y1055461D01*
X661019Y1054796D01*
Y1059768D01*
X662289D01*
Y1061038D01*
X667262D01*
X666596Y1062646D01*
X665167Y1064075D01*
X663525Y1064755D01*
X663180Y1065580D01*
X663092Y1066118D01*
X663437Y1066462D01*
X664102Y1068070D01*
X659130D01*
Y1069340D01*
X657860D01*
Y1074313D01*
D02*
G37*
G36*
X729912Y1076960D02*
X725170D01*
Y1072218D01*
X727321Y1073110D01*
X729020Y1074809D01*
X729912Y1076960D01*
D02*
G37*
G36*
X722630D02*
X717888D01*
X718780Y1074809D01*
X720479Y1073110D01*
X722630Y1072218D01*
Y1076960D01*
D02*
G37*
G36*
X660400Y1074313D02*
Y1070610D01*
X664102D01*
X663437Y1072218D01*
X662008Y1073647D01*
X660400Y1074313D01*
D02*
G37*
G36*
X650240D02*
X648632Y1073647D01*
X647203Y1072218D01*
X646537Y1070610D01*
X650240D01*
Y1074313D01*
D02*
G37*
G36*
X972820Y1068992D02*
Y1068070D01*
X973742D01*
X972820Y1068992D01*
D02*
G37*
G36*
X965200D02*
X964278Y1068070D01*
X965200D01*
Y1068992D01*
D02*
G37*
G36*
X1154540Y1076960D02*
X1144270D01*
Y1066690D01*
X1144519D01*
X1147454Y1067477D01*
X1150086Y1068996D01*
X1152234Y1071144D01*
X1153754Y1073776D01*
X1154540Y1076711D01*
Y1076960D01*
D02*
G37*
G36*
X1141730D02*
X1131460D01*
Y1076711D01*
X1132246Y1073776D01*
X1133766Y1071144D01*
X1135914Y1068996D01*
X1138546Y1067477D01*
X1141481Y1066690D01*
X1141730D01*
Y1076960D01*
D02*
G37*
G36*
X973742Y1060450D02*
X972820D01*
Y1059528D01*
X973742Y1060450D01*
D02*
G37*
G36*
X965200D02*
X964278D01*
X965200Y1059528D01*
Y1060450D01*
D02*
G37*
G36*
X628650Y1129154D02*
X626172Y1128662D01*
X624072Y1127258D01*
X622668Y1125158D01*
X622176Y1122680D01*
X622668Y1120202D01*
X624072Y1118102D01*
X682492Y1059682D01*
X684592Y1058278D01*
X687070Y1057786D01*
X826770D01*
X829248Y1058278D01*
X831348Y1059682D01*
X832752Y1061782D01*
X833244Y1064260D01*
X832752Y1066738D01*
X831348Y1068838D01*
X829248Y1070242D01*
X826770Y1070734D01*
X689752D01*
X633228Y1127258D01*
X631128Y1128662D01*
X628650Y1129154D01*
D02*
G37*
G36*
X563880Y1056292D02*
Y1055370D01*
X564802D01*
X563880Y1056292D01*
D02*
G37*
G36*
X556260D02*
X555338Y1055370D01*
X556260D01*
Y1056292D01*
D02*
G37*
G36*
X667262Y1058498D02*
X663559D01*
Y1054796D01*
X665167Y1055461D01*
X666596Y1056890D01*
X667262Y1058498D01*
D02*
G37*
G36*
X649541D02*
X645838D01*
X646504Y1056890D01*
X647933Y1055461D01*
X649541Y1054796D01*
Y1058498D01*
D02*
G37*
G36*
X564802Y1047750D02*
X563880D01*
Y1046828D01*
X564802Y1047750D01*
D02*
G37*
G36*
X556260D02*
X555338D01*
X556260Y1046828D01*
Y1047750D01*
D02*
G37*
G36*
X1144519Y1064370D02*
X1141481D01*
X1138546Y1063584D01*
X1135914Y1062064D01*
X1133766Y1059916D01*
X1132246Y1057284D01*
X1131460Y1054349D01*
Y1051311D01*
X1132246Y1048376D01*
X1133766Y1045744D01*
X1135914Y1043596D01*
X1138546Y1042076D01*
X1141481Y1041290D01*
X1144519D01*
X1147454Y1042076D01*
X1150086Y1043596D01*
X1152234Y1045744D01*
X1153754Y1048376D01*
X1154540Y1051311D01*
Y1054349D01*
X1153754Y1057284D01*
X1152234Y1059916D01*
X1150086Y1062064D01*
X1147454Y1063584D01*
X1144519Y1064370D01*
D02*
G37*
G36*
X951230Y1030892D02*
Y1029970D01*
X952152D01*
X951230Y1030892D01*
D02*
G37*
G36*
X943610D02*
X942688Y1029970D01*
X943610D01*
Y1030892D01*
D02*
G37*
G36*
X952152Y1022350D02*
X951230D01*
Y1021428D01*
X952152Y1022350D01*
D02*
G37*
G36*
X943610D02*
X942688D01*
X943610Y1021428D01*
Y1022350D01*
D02*
G37*
G36*
X990600Y1018192D02*
Y1017270D01*
X991522D01*
X990600Y1018192D01*
D02*
G37*
G36*
X982980D02*
X982058Y1017270D01*
X982980D01*
Y1018192D01*
D02*
G37*
G36*
X1144519Y1038970D02*
X1141481D01*
X1138546Y1038184D01*
X1135914Y1036664D01*
X1133766Y1034516D01*
X1132246Y1031884D01*
X1131460Y1028949D01*
Y1025911D01*
X1132246Y1022976D01*
X1133766Y1020344D01*
X1135914Y1018196D01*
X1138546Y1016676D01*
X1141481Y1015890D01*
X1144519D01*
X1147454Y1016676D01*
X1150086Y1018196D01*
X1152234Y1020344D01*
X1153754Y1022976D01*
X1154540Y1025911D01*
Y1028949D01*
X1153754Y1031884D01*
X1152234Y1034516D01*
X1150086Y1036664D01*
X1147454Y1038184D01*
X1144519Y1038970D01*
D02*
G37*
G36*
X991522Y1009650D02*
X990600D01*
Y1008728D01*
X991522Y1009650D01*
D02*
G37*
G36*
X982980D02*
X982058D01*
X982980Y1008728D01*
Y1009650D01*
D02*
G37*
G36*
X1038860Y1004222D02*
Y1003300D01*
X1039782D01*
X1038860Y1004222D01*
D02*
G37*
G36*
X1031240D02*
X1030318Y1003300D01*
X1031240D01*
Y1004222D01*
D02*
G37*
G36*
X467995Y1003443D02*
Y1001395D01*
X470042D01*
X469940Y1001641D01*
X468241Y1003341D01*
X467995Y1003443D01*
D02*
G37*
G36*
X461645D02*
X461399Y1003341D01*
X459700Y1001641D01*
X459598Y1001395D01*
X461645D01*
Y1003443D01*
D02*
G37*
G36*
X432435Y1002172D02*
Y1000125D01*
X434482D01*
X434380Y1000371D01*
X432681Y1002070D01*
X432435Y1002172D01*
D02*
G37*
G36*
X426085D02*
X425839Y1002070D01*
X424140Y1000371D01*
X424038Y1000125D01*
X426085D01*
Y1002172D01*
D02*
G37*
G36*
X726440Y999142D02*
Y998220D01*
X727362D01*
X726440Y999142D01*
D02*
G37*
G36*
X718820D02*
X717898Y998220D01*
X718820D01*
Y999142D01*
D02*
G37*
G36*
X394335Y999632D02*
Y997585D01*
X396382D01*
X396281Y997831D01*
X394581Y999530D01*
X394335Y999632D01*
D02*
G37*
G36*
X387985D02*
X387739Y999530D01*
X386040Y997831D01*
X385938Y997585D01*
X387985D01*
Y999632D01*
D02*
G37*
G36*
X351155D02*
Y997585D01*
X353203D01*
X353101Y997831D01*
X351401Y999530D01*
X351155Y999632D01*
D02*
G37*
G36*
X344805D02*
X344559Y999530D01*
X342859Y997831D01*
X342757Y997585D01*
X344805D01*
Y999632D01*
D02*
G37*
G36*
X652780Y996602D02*
Y995680D01*
X653702D01*
X652780Y996602D01*
D02*
G37*
G36*
X645160D02*
X644238Y995680D01*
X645160D01*
Y996602D01*
D02*
G37*
G36*
X1039782Y995680D02*
X1038860D01*
Y994758D01*
X1039782Y995680D01*
D02*
G37*
G36*
X1031240D02*
X1030318D01*
X1031240Y994758D01*
Y995680D01*
D02*
G37*
G36*
X470042Y995045D02*
X467995D01*
Y992998D01*
X468241Y993100D01*
X469940Y994799D01*
X470042Y995045D01*
D02*
G37*
G36*
X461645D02*
X459598D01*
X459700Y994799D01*
X461399Y993100D01*
X461645Y992998D01*
Y995045D01*
D02*
G37*
G36*
X434482Y993775D02*
X432435D01*
Y991728D01*
X432681Y991830D01*
X434380Y993529D01*
X434482Y993775D01*
D02*
G37*
G36*
X426085D02*
X424038D01*
X424140Y993529D01*
X425839Y991830D01*
X426085Y991728D01*
Y993775D01*
D02*
G37*
G36*
X1154540Y1013570D02*
X1131460D01*
Y990490D01*
X1154540D01*
Y1013570D01*
D02*
G37*
G36*
X727362Y990600D02*
X726440D01*
Y989678D01*
X727362Y990600D01*
D02*
G37*
G36*
X718820D02*
X717898D01*
X718820Y989678D01*
Y990600D01*
D02*
G37*
G36*
X396382Y991235D02*
X394335D01*
Y989187D01*
X394581Y989289D01*
X396281Y990989D01*
X396382Y991235D01*
D02*
G37*
G36*
X387985D02*
X385938D01*
X386040Y990989D01*
X387739Y989289D01*
X387985Y989187D01*
Y991235D01*
D02*
G37*
G36*
X353203D02*
X351155D01*
Y989187D01*
X351401Y989289D01*
X353101Y990989D01*
X353203Y991235D01*
D02*
G37*
G36*
X344805D02*
X342757D01*
X342859Y990989D01*
X344559Y989289D01*
X344805Y989187D01*
Y991235D01*
D02*
G37*
G36*
X653702Y988060D02*
X652780D01*
Y987138D01*
X653702Y988060D01*
D02*
G37*
G36*
X645160D02*
X644238D01*
X645160Y987138D01*
Y988060D01*
D02*
G37*
G36*
X972820Y981052D02*
Y980130D01*
X973742D01*
X972820Y981052D01*
D02*
G37*
G36*
X965200D02*
X964278Y980130D01*
X965200D01*
Y981052D01*
D02*
G37*
G36*
X973742Y972510D02*
X972820D01*
Y971588D01*
X973742Y972510D01*
D02*
G37*
G36*
X965200D02*
X964278D01*
X965200Y971588D01*
Y972510D01*
D02*
G37*
G36*
X469265Y970423D02*
Y968375D01*
X471312D01*
X471211Y968621D01*
X469511Y970321D01*
X469265Y970423D01*
D02*
G37*
G36*
X462915D02*
X462669Y970321D01*
X460970Y968621D01*
X460868Y968375D01*
X462915D01*
Y970423D01*
D02*
G37*
G36*
X394335Y969153D02*
Y967105D01*
X396382D01*
X396281Y967351D01*
X394581Y969051D01*
X394335Y969153D01*
D02*
G37*
G36*
X387985D02*
X387739Y969051D01*
X386040Y967351D01*
X385938Y967105D01*
X387985D01*
Y969153D01*
D02*
G37*
G36*
X432435Y967883D02*
Y965835D01*
X434482D01*
X434380Y966081D01*
X432681Y967781D01*
X432435Y967883D01*
D02*
G37*
G36*
X426085D02*
X425839Y967781D01*
X424140Y966081D01*
X424038Y965835D01*
X426085D01*
Y967883D01*
D02*
G37*
G36*
X349885Y966612D02*
Y964565D01*
X351932D01*
X351830Y964811D01*
X350131Y966510D01*
X349885Y966612D01*
D02*
G37*
G36*
X343535D02*
X343289Y966510D01*
X341590Y964811D01*
X341488Y964565D01*
X343535D01*
Y966612D01*
D02*
G37*
G36*
X471312Y962025D02*
X469265D01*
Y959977D01*
X469511Y960079D01*
X471211Y961779D01*
X471312Y962025D01*
D02*
G37*
G36*
X462915D02*
X460868D01*
X460970Y961779D01*
X462669Y960079D01*
X462915Y959977D01*
Y962025D01*
D02*
G37*
G36*
X396382Y960755D02*
X394335D01*
Y958708D01*
X394581Y958810D01*
X396281Y960509D01*
X396382Y960755D01*
D02*
G37*
G36*
X387985D02*
X385938D01*
X386040Y960509D01*
X387739Y958810D01*
X387985Y958708D01*
Y960755D01*
D02*
G37*
G36*
X624892Y977780D02*
X622248D01*
X619695Y977096D01*
X617405Y975774D01*
X615536Y973905D01*
X614214Y971615D01*
X613530Y969062D01*
Y966418D01*
X614214Y963865D01*
X615536Y961575D01*
X617405Y959706D01*
X619695Y958384D01*
X622248Y957700D01*
X624892D01*
X627445Y958384D01*
X629735Y959706D01*
X631604Y961575D01*
X632926Y963865D01*
X633610Y966418D01*
Y969062D01*
X632926Y971615D01*
X631604Y973905D01*
X629735Y975774D01*
X627445Y977096D01*
X624892Y977780D01*
D02*
G37*
G36*
X599492D02*
X596848D01*
X594295Y977096D01*
X592005Y975774D01*
X590136Y973905D01*
X588814Y971615D01*
X588130Y969062D01*
Y966418D01*
X588814Y963865D01*
X590136Y961575D01*
X592005Y959706D01*
X594295Y958384D01*
X596848Y957700D01*
X599492D01*
X602045Y958384D01*
X604335Y959706D01*
X606204Y961575D01*
X607526Y963865D01*
X608210Y966418D01*
Y969062D01*
X607526Y971615D01*
X606204Y973905D01*
X604335Y975774D01*
X602045Y977096D01*
X599492Y977780D01*
D02*
G37*
G36*
X434482Y959485D02*
X432435D01*
Y957438D01*
X432681Y957540D01*
X434380Y959239D01*
X434482Y959485D01*
D02*
G37*
G36*
X426085D02*
X424038D01*
X424140Y959239D01*
X425839Y957540D01*
X426085Y957438D01*
Y959485D01*
D02*
G37*
G36*
X351932Y958215D02*
X349885D01*
Y956168D01*
X350131Y956270D01*
X351830Y957969D01*
X351932Y958215D01*
D02*
G37*
G36*
X343535D02*
X341488D01*
X341590Y957969D01*
X343289Y956270D01*
X343535Y956168D01*
Y958215D01*
D02*
G37*
G36*
X694168Y891170D02*
X693820D01*
Y880150D01*
X704840D01*
Y880498D01*
X704003Y883624D01*
X702384Y886426D01*
X700096Y888715D01*
X697294Y890332D01*
X694168Y891170D01*
D02*
G37*
G36*
X691280D02*
X690932D01*
X687806Y890332D01*
X685004Y888715D01*
X682716Y886426D01*
X681097Y883624D01*
X680260Y880498D01*
Y880150D01*
X691280D01*
Y891170D01*
D02*
G37*
G36*
X704840Y877610D02*
X693820D01*
Y866590D01*
X694168D01*
X697294Y867428D01*
X700096Y869046D01*
X702384Y871334D01*
X704003Y874136D01*
X704840Y877262D01*
Y877610D01*
D02*
G37*
G36*
X691280D02*
X680260D01*
Y877262D01*
X681097Y874136D01*
X682716Y871334D01*
X685004Y869046D01*
X687806Y867428D01*
X690932Y866590D01*
X691280D01*
Y877610D01*
D02*
G37*
G36*
X747425Y891234D02*
X737675D01*
X735739Y890979D01*
X733935Y890232D01*
X732387Y889043D01*
X731198Y887495D01*
X730451Y885691D01*
X730196Y883755D01*
Y874005D01*
X730451Y872069D01*
X731198Y870266D01*
X732387Y868717D01*
X733935Y867528D01*
X735739Y866781D01*
X737675Y866526D01*
X747425D01*
X749361Y866781D01*
X751164Y867528D01*
X752713Y868717D01*
X753902Y870266D01*
X754649Y872069D01*
X754904Y874005D01*
Y883755D01*
X754649Y885691D01*
X753902Y887495D01*
X752713Y889043D01*
X751164Y890232D01*
X749361Y890979D01*
X747425Y891234D01*
D02*
G37*
%LPD*%
D56*
X341080Y1089660D02*
D03*
D57*
X1143000Y1052830D02*
D03*
Y1027430D02*
D03*
Y1078230D02*
D03*
Y1103630D02*
D03*
Y1129030D02*
D03*
X386080Y1089660D02*
D03*
D67*
X628650Y1122680D02*
X687070Y1064260D01*
X826770D01*
D78*
X1143000Y1002030D02*
D03*
D79*
X598170Y967740D02*
D03*
X623570D02*
D03*
D80*
X742550Y878880D02*
D03*
D81*
X692550D02*
D03*
D82*
X659130Y1069340D02*
D03*
X662289Y1059768D02*
D03*
X650811D02*
D03*
X656590Y1061720D02*
D03*
X651510Y1069340D02*
D03*
D83*
X969010Y976320D02*
D03*
X826770Y1064260D02*
D03*
X891540Y1080770D02*
D03*
X924560Y1079500D02*
D03*
X947420Y1026160D02*
D03*
X969010Y1064260D02*
D03*
X986790Y1013460D02*
D03*
X1035050Y999490D02*
D03*
X1036320Y1083310D02*
D03*
X1076960Y1085850D02*
D03*
X723900Y1078230D02*
D03*
X628650Y1122680D02*
D03*
X648970Y991870D02*
D03*
X722630Y994410D02*
D03*
X609600Y1137920D02*
D03*
X581660Y1122680D02*
D03*
X560070Y1051560D02*
D03*
X466090Y965200D02*
D03*
X464820Y998220D02*
D03*
X429260Y962660D02*
D03*
Y996950D02*
D03*
X391160Y963930D02*
D03*
Y994410D02*
D03*
X346710Y961390D02*
D03*
X347980Y994410D02*
D03*
M02*
