G04*
G04 #@! TF.GenerationSoftware,Altium Limited,Altium Designer,24.2.2 (26)*
G04*
G04 Layer_Color=16711935*
%FSLAX44Y44*%
%MOMM*%
G71*
G04*
G04 #@! TF.SameCoordinates,AEC4A8A8-F976-43A1-B07D-7652D342165A*
G04*
G04*
G04 #@! TF.FilePolarity,Negative*
G04*
G01*
G75*
%ADD54C,2.0032*%
%ADD55R,2.0032X2.0032*%
%ADD56C,1.7000*%
%ADD57C,1.8000*%
%ADD58C,1.7032*%
G04:AMPARAMS|DCode=59|XSize=2.1532mm|YSize=2.1532mm|CornerRadius=0.5891mm|HoleSize=0mm|Usage=FLASHONLY|Rotation=180.000|XOffset=0mm|YOffset=0mm|HoleType=Round|Shape=RoundedRectangle|*
%AMROUNDEDRECTD59*
21,1,2.1532,0.9750,0,0,180.0*
21,1,0.9750,2.1532,0,0,180.0*
1,1,1.1782,-0.4875,0.4875*
1,1,1.1782,0.4875,0.4875*
1,1,1.1782,0.4875,-0.4875*
1,1,1.1782,-0.4875,-0.4875*
%
%ADD59ROUNDEDRECTD59*%
%ADD60C,2.1532*%
%ADD61C,0.7112*%
%ADD62C,0.9032*%
D54*
X1143000Y1052830D02*
D03*
Y1027430D02*
D03*
Y1078230D02*
D03*
Y1103630D02*
D03*
Y1129030D02*
D03*
D55*
Y1002030D02*
D03*
D56*
X341080Y1089660D02*
D03*
D57*
X386080D02*
D03*
D58*
X598170Y967740D02*
D03*
X623570D02*
D03*
D59*
X742550Y878880D02*
D03*
D60*
X692550D02*
D03*
D61*
X659130Y1069340D02*
D03*
X662289Y1059768D02*
D03*
X650811D02*
D03*
X656590Y1061720D02*
D03*
X651510Y1069340D02*
D03*
D62*
X969010Y976320D02*
D03*
X826770Y1064260D02*
D03*
X891540Y1080770D02*
D03*
X924560Y1079500D02*
D03*
X947420Y1026160D02*
D03*
X969010Y1064260D02*
D03*
X986790Y1013460D02*
D03*
X1035050Y999490D02*
D03*
X1036320Y1083310D02*
D03*
X1076960Y1085850D02*
D03*
X723900Y1078230D02*
D03*
X628650Y1122680D02*
D03*
X648970Y991870D02*
D03*
X722630Y994410D02*
D03*
X609600Y1137920D02*
D03*
X581660Y1122680D02*
D03*
X560070Y1051560D02*
D03*
X466090Y965200D02*
D03*
X464820Y998220D02*
D03*
X429260Y962660D02*
D03*
Y996950D02*
D03*
X391160Y963930D02*
D03*
Y994410D02*
D03*
X346710Y961390D02*
D03*
X347980Y994410D02*
D03*
M02*
