M48
;Layer_Color=9474304
;FILE_FORMAT=4:4
METRIC,LZ
;TYPE=PLATED
T01F00S00C0.2540
T02F00S00C0.3000
T03F00S00C1.0000
T04F00S00C1.3000
;TYPE=NON_PLATED
T05F00S00C1.7000
T06F00S00C1.8000
%
T01
X00650811Y01059768
X0065659Y0106172
X00662289Y01059768
X0065913Y0106934
X0065151
T02
X0034671Y0096139
X0034798Y0099441
X0039116
Y0096393
X0042926Y0096266
Y0099695
X0046482Y0099822
X0046609Y009652
X0056007Y0105156
X0058166Y0112268
X006096Y0113792
X0062865Y0112268
X007239Y0107823
X0072263Y0099441
X0064897Y0099187
X0082677Y0106426
X0089154Y0108077
X0092456Y010795
X0096901Y0106426
X0094742Y0102616
X0098679Y0101346
X0096901Y0097632
X0103505Y0099949
X0103632Y0108331
X0107696Y0108585
T03
X0059817Y0096774
X0062357
T04
X0069255Y0087888
X0074255
X01143Y0100203
Y0102743
Y0105283
Y0107823
Y0110363
Y0112903
T05
X0034108Y0108966
T06
X0038608Y0108966
M30
